<mxfile host="Electron" agent="Mozilla/5.0 (Windows NT 10.0; Win64; x64) AppleWebKit/537.36 (KHTML, like Gecko) draw.io/26.0.16 Chrome/132.0.6834.196 Electron/34.2.0 Safari/537.36" version="26.0.16">
  <diagram name="Page-1" id="pbU432u3Lik6XFS1ZEKg">
    <mxGraphModel dx="2188" dy="823" grid="1" gridSize="10" guides="1" tooltips="1" connect="1" arrows="1" fold="1" page="1" pageScale="1" pageWidth="850" pageHeight="1100" math="0" shadow="0">
      <root>
        <mxCell id="0" />
        <mxCell id="1" parent="0" />
        <mxCell id="SUZSEkjQNCOUX_3ySbaj-112" value="" style="rounded=1;whiteSpace=wrap;html=1;direction=west;fillColor=light-dark(#D4E1F5,var(--ge-dark-color, #121212));" parent="1" vertex="1">
          <mxGeometry x="-620" y="918" width="740" height="180" as="geometry" />
        </mxCell>
        <mxCell id="SUZSEkjQNCOUX_3ySbaj-16" value="" style="rounded=1;arcSize=10;dashed=1;fillColor=#FFFFFF;gradientColor=none;dashPattern=8 3 1 3;strokeWidth=2;" parent="1" vertex="1">
          <mxGeometry x="-680" y="120" width="879.99" height="490" as="geometry" />
        </mxCell>
        <mxCell id="SUZSEkjQNCOUX_3ySbaj-14" value="" style="rounded=1;whiteSpace=wrap;html=1;direction=west;fillColor=light-dark(#D4E1F5,var(--ge-dark-color, #121212));" parent="1" vertex="1">
          <mxGeometry x="-600.01" y="681.67" width="720" height="158" as="geometry" />
        </mxCell>
        <mxCell id="SUZSEkjQNCOUX_3ySbaj-13" value="" style="rounded=1;whiteSpace=wrap;html=1;direction=west;fillColor=light-dark(#D4E1F5,var(--ge-dark-color, #121212));" parent="1" vertex="1">
          <mxGeometry x="-599" y="440" width="720" height="160" as="geometry" />
        </mxCell>
        <mxCell id="SUZSEkjQNCOUX_3ySbaj-9" value="" style="rounded=1;whiteSpace=wrap;html=1;direction=west;fillColor=light-dark(#D4E1F5,var(--ge-dark-color, #121212));" parent="1" vertex="1">
          <mxGeometry x="-599" y="200" width="720" height="160" as="geometry" />
        </mxCell>
        <mxCell id="SUZSEkjQNCOUX_3ySbaj-1" value="" style="image;aspect=fixed;html=1;points=[];align=center;fontSize=12;image=img/lib/azure2/ai_machine_learning/Machine_Learning.svg;" parent="1" vertex="1">
          <mxGeometry x="-278.24" y="452.44" width="76.47" height="81.26" as="geometry" />
        </mxCell>
        <mxCell id="SUZSEkjQNCOUX_3ySbaj-2" value="" style="image;aspect=fixed;html=1;points=[];align=center;fontSize=12;image=img/lib/azure2/ai_machine_learning/Machine_Learning_Studio_Workspaces.svg;" parent="1" vertex="1">
          <mxGeometry x="-15.75" y="464.96" width="73.25" height="73.25" as="geometry" />
        </mxCell>
        <mxCell id="SUZSEkjQNCOUX_3ySbaj-4" value="" style="image;aspect=fixed;html=1;points=[];align=center;fontSize=12;image=img/lib/azure2/power_platform/PowerApps.svg;" parent="1" vertex="1">
          <mxGeometry x="-789.75" y="247.42000000000002" width="68" height="65.16" as="geometry" />
        </mxCell>
        <mxCell id="SUZSEkjQNCOUX_3ySbaj-7" value="" style="image;aspect=fixed;html=1;points=[];align=center;fontSize=12;image=img/lib/azure2/databases/Data_Factory.svg;" parent="1" vertex="1">
          <mxGeometry x="-301.03" y="238" width="68" height="68" as="geometry" />
        </mxCell>
        <mxCell id="SUZSEkjQNCOUX_3ySbaj-8" value="" style="image;aspect=fixed;html=1;points=[];align=center;fontSize=12;image=img/lib/azure2/databases/SQL_Database.svg;" parent="1" vertex="1">
          <mxGeometry x="-550" y="242" width="48" height="64" as="geometry" />
        </mxCell>
        <mxCell id="SUZSEkjQNCOUX_3ySbaj-121" value="" style="edgeStyle=orthogonalEdgeStyle;rounded=0;orthogonalLoop=1;jettySize=auto;html=1;" parent="1" source="SUZSEkjQNCOUX_3ySbaj-18" target="SUZSEkjQNCOUX_3ySbaj-49" edge="1">
          <mxGeometry relative="1" as="geometry" />
        </mxCell>
        <mxCell id="SUZSEkjQNCOUX_3ySbaj-18" value="" style="verticalLabelPosition=bottom;html=1;verticalAlign=top;align=center;strokeColor=none;fillColor=#00BEF2;shape=mxgraph.azure.user;" parent="1" vertex="1">
          <mxGeometry x="-779.5" y="400" width="47.5" height="63.32" as="geometry" />
        </mxCell>
        <mxCell id="SUZSEkjQNCOUX_3ySbaj-19" value="" style="image;aspect=fixed;html=1;points=[];align=center;fontSize=12;image=img/lib/azure2/analytics/Power_BI_Embedded.svg;" parent="1" vertex="1">
          <mxGeometry x="-553" y="713.67" width="51" height="68" as="geometry" />
        </mxCell>
        <mxCell id="SUZSEkjQNCOUX_3ySbaj-20" value="&lt;h1 style=&quot;color: rgb(41, 41, 41); background-color: rgb(255, 255, 255); font-family: Consolas, &amp;quot;Courier New&amp;quot;, monospace; font-size: 14px; line-height: 19px; white-space: pre;&quot;&gt;Model &lt;br/&gt;Endpoint&lt;/h1&gt;" style="text;html=1;align=center;verticalAlign=middle;whiteSpace=wrap;rounded=0;" parent="1" vertex="1">
          <mxGeometry x="-583.5" y="550" width="115" height="35" as="geometry" />
        </mxCell>
        <mxCell id="SUZSEkjQNCOUX_3ySbaj-21" value="" style="sketch=0;outlineConnect=0;fontColor=#232F3E;gradientColor=none;fillColor=#01A88D;strokeColor=none;dashed=0;verticalLabelPosition=bottom;verticalAlign=top;align=center;html=1;fontSize=12;fontStyle=0;aspect=fixed;pointerEvents=1;shape=mxgraph.aws4.sagemaker_model;" parent="1" vertex="1">
          <mxGeometry x="-425" y="468.32" width="78" height="78" as="geometry" />
        </mxCell>
        <mxCell id="SUZSEkjQNCOUX_3ySbaj-22" value="" style="image;aspect=fixed;html=1;points=[];align=center;fontSize=12;image=img/lib/azure2/other/Private_Endpoints.svg;" parent="1" vertex="1">
          <mxGeometry x="-560" y="473.53" width="68" height="64.68" as="geometry" />
        </mxCell>
        <mxCell id="SUZSEkjQNCOUX_3ySbaj-30" value="&lt;h1 style=&quot;color: rgb(41, 41, 41); background-color: rgb(255, 255, 255); font-family: Consolas, &amp;quot;Courier New&amp;quot;, monospace; font-size: 14px; line-height: 19px; white-space: pre;&quot;&gt;Model &lt;br/&gt;Registred&lt;/h1&gt;" style="text;html=1;align=center;verticalAlign=middle;whiteSpace=wrap;rounded=0;" parent="1" vertex="1">
          <mxGeometry x="-443.5" y="550" width="115" height="35" as="geometry" />
        </mxCell>
        <mxCell id="SUZSEkjQNCOUX_3ySbaj-31" value="" style="dashed=0;outlineConnect=0;html=1;align=center;labelPosition=center;verticalLabelPosition=bottom;verticalAlign=top;shape=mxgraph.weblogos.onedrive;fillColor=#094AB1;strokeColor=none" parent="1" vertex="1">
          <mxGeometry x="1.27675647831893e-14" y="732.4" width="71.2" height="43.2" as="geometry" />
        </mxCell>
        <mxCell id="SUZSEkjQNCOUX_3ySbaj-33" value="" style="image;aspect=fixed;html=1;points=[];align=center;fontSize=12;image=img/lib/azure2/management_governance/Metrics.svg;" parent="1" vertex="1">
          <mxGeometry x="-299.03" y="717.3" width="64" height="68" as="geometry" />
        </mxCell>
        <mxCell id="SUZSEkjQNCOUX_3ySbaj-37" value="" style="verticalLabelPosition=bottom;html=1;verticalAlign=top;align=center;strokeColor=none;fillColor=#00BEF2;shape=mxgraph.azure.computer;pointerEvents=1;" parent="1" vertex="1">
          <mxGeometry x="-326.03" y="971" width="100" height="67" as="geometry" />
        </mxCell>
        <mxCell id="SUZSEkjQNCOUX_3ySbaj-138" value="" style="edgeStyle=orthogonalEdgeStyle;rounded=0;orthogonalLoop=1;jettySize=auto;html=1;" parent="1" source="SUZSEkjQNCOUX_3ySbaj-38" target="SUZSEkjQNCOUX_3ySbaj-112" edge="1">
          <mxGeometry relative="1" as="geometry">
            <Array as="points">
              <mxPoint x="-526" y="890" />
              <mxPoint x="-526" y="890" />
            </Array>
          </mxGeometry>
        </mxCell>
        <mxCell id="SUZSEkjQNCOUX_3ySbaj-38" value="&lt;div style=&quot;color: rgb(41, 41, 41); background-color: rgb(255, 255, 255); font-family: Consolas, &amp;quot;Courier New&amp;quot;, monospace; font-size: 14px; line-height: 19px; white-space: pre;&quot;&gt;&lt;b&gt;Power BI&lt;br&gt;Report&lt;/b&gt;&lt;/div&gt;" style="text;html=1;align=center;verticalAlign=middle;whiteSpace=wrap;rounded=0;" parent="1" vertex="1">
          <mxGeometry x="-583.5" y="791.3" width="115" height="35" as="geometry" />
        </mxCell>
        <mxCell id="SUZSEkjQNCOUX_3ySbaj-39" value="&lt;div style=&quot;color: rgb(41, 41, 41); background-color: rgb(255, 255, 255); font-family: Consolas, &amp;quot;Courier New&amp;quot;, monospace; font-size: 14px; line-height: 19px; white-space: pre;&quot;&gt;&lt;b&gt; Power BI &lt;br&gt;Report&lt;/b&gt;&lt;/div&gt;" style="text;html=1;align=center;verticalAlign=middle;whiteSpace=wrap;rounded=0;" parent="1" vertex="1">
          <mxGeometry x="-321.51" y="791.3" width="115" height="35" as="geometry" />
        </mxCell>
        <mxCell id="SUZSEkjQNCOUX_3ySbaj-125" value="" style="edgeStyle=orthogonalEdgeStyle;rounded=0;orthogonalLoop=1;jettySize=auto;html=1;" parent="1" source="SUZSEkjQNCOUX_3ySbaj-40" target="SUZSEkjQNCOUX_3ySbaj-44" edge="1">
          <mxGeometry relative="1" as="geometry" />
        </mxCell>
        <mxCell id="SUZSEkjQNCOUX_3ySbaj-40" value="&lt;div style=&quot;color: rgb(41, 41, 41); background-color: rgb(255, 255, 255); font-family: Consolas, &amp;quot;Courier New&amp;quot;, monospace; font-size: 14px; line-height: 19px; white-space: pre;&quot;&gt;&lt;b&gt;Microsoft&lt;br&gt;OneDrive&lt;/b&gt;&lt;/div&gt;" style="text;html=1;align=center;verticalAlign=middle;whiteSpace=wrap;rounded=0;" parent="1" vertex="1">
          <mxGeometry x="-22.5" y="785.3" width="115" height="35" as="geometry" />
        </mxCell>
        <mxCell id="SUZSEkjQNCOUX_3ySbaj-41" value="&lt;h1 style=&quot;color: rgb(41, 41, 41); background-color: rgb(255, 255, 255); font-family: Consolas, &amp;quot;Courier New&amp;quot;, monospace; font-size: 14px; line-height: 19px; white-space: pre;&quot;&gt; SQL &lt;br&gt;Database&lt;/h1&gt;" style="text;html=1;align=center;verticalAlign=middle;whiteSpace=wrap;rounded=0;" parent="1" vertex="1">
          <mxGeometry x="-583.5" y="312.58" width="115" height="35" as="geometry" />
        </mxCell>
        <mxCell id="SUZSEkjQNCOUX_3ySbaj-42" value="&lt;h1 style=&quot;color: rgb(41, 41, 41); background-color: rgb(255, 255, 255); font-family: Consolas, &amp;quot;Courier New&amp;quot;, monospace; font-size: 14px; line-height: 19px; white-space: pre;&quot;&gt; Data &lt;br&gt;Factories&lt;/h1&gt;" style="text;html=1;align=center;verticalAlign=middle;whiteSpace=wrap;rounded=0;" parent="1" vertex="1">
          <mxGeometry x="-325.03" y="312.58" width="107.03" height="35" as="geometry" />
        </mxCell>
        <mxCell id="SUZSEkjQNCOUX_3ySbaj-44" value="" style="verticalLabelPosition=bottom;html=1;verticalAlign=top;align=center;strokeColor=none;fillColor=#00BEF2;shape=mxgraph.azure.user;" parent="1" vertex="1">
          <mxGeometry x="11.85" y="974.5" width="47.5" height="60" as="geometry" />
        </mxCell>
        <mxCell id="SUZSEkjQNCOUX_3ySbaj-45" value="&lt;div style=&quot;color: rgb(41, 41, 41); background-color: rgb(255, 255, 255); font-family: Consolas, &amp;quot;Courier New&amp;quot;, monospace; font-weight: normal; line-height: 19px; white-space-collapse: preserve;&quot;&gt;&lt;span style=&quot;color: rgb(0, 0, 128); font-weight: bold;&quot;&gt;&lt;font style=&quot;font-size: 24px;&quot;&gt;Data Preparation&lt;/font&gt;&lt;/span&gt;&lt;/div&gt;" style="text;strokeColor=none;fillColor=none;html=1;fontSize=24;fontStyle=1;verticalAlign=middle;align=center;" parent="1" vertex="1">
          <mxGeometry x="-401.78" y="148" width="251.5" height="40" as="geometry" />
        </mxCell>
        <mxCell id="SUZSEkjQNCOUX_3ySbaj-48" value="&lt;h1 style=&quot;color: rgb(41, 41, 41); background-color: rgb(255, 255, 255); font-family: Consolas, &amp;quot;Courier New&amp;quot;, monospace; font-size: 14px; line-height: 19px; white-space: pre;&quot;&gt;User Input&lt;/h1&gt;" style="text;html=1;align=center;verticalAlign=middle;whiteSpace=wrap;rounded=0;" parent="1" vertex="1">
          <mxGeometry x="-820" y="472.5" width="115" height="35" as="geometry" />
        </mxCell>
        <mxCell id="SUZSEkjQNCOUX_3ySbaj-49" value="&lt;h1 style=&quot;color: rgb(41, 41, 41); background-color: rgb(255, 255, 255); font-family: Consolas, &amp;quot;Courier New&amp;quot;, monospace; font-size: 14px; line-height: 19px; white-space: pre;&quot;&gt;Power App&lt;/h1&gt;" style="text;html=1;align=center;verticalAlign=middle;whiteSpace=wrap;rounded=0;" parent="1" vertex="1">
          <mxGeometry x="-813.25" y="320" width="115" height="20" as="geometry" />
        </mxCell>
        <mxCell id="SUZSEkjQNCOUX_3ySbaj-50" value="" style="image;aspect=fixed;html=1;points=[];align=center;fontSize=12;image=img/lib/azure2/general/Resource_Groups.svg;" parent="1" vertex="1">
          <mxGeometry x="-666" y="136" width="68" height="64" as="geometry" />
        </mxCell>
        <mxCell id="SUZSEkjQNCOUX_3ySbaj-62" value="&lt;div style=&quot;color: rgb(41, 41, 41); background-color: rgb(255, 255, 255); font-family: Consolas, &amp;quot;Courier New&amp;quot;, monospace; line-height: 19px; white-space-collapse: preserve;&quot;&gt;&lt;span style=&quot;color: rgb(0, 0, 128);&quot;&gt;&lt;font style=&quot;font-size: 24px;&quot;&gt;Machine Learning Integration&lt;/font&gt;&lt;/span&gt;&lt;/div&gt;" style="text;strokeColor=none;fillColor=none;html=1;fontSize=24;fontStyle=1;verticalAlign=middle;align=center;" parent="1" vertex="1">
          <mxGeometry x="-466.78" y="380.7" width="381.5" height="40" as="geometry" />
        </mxCell>
        <mxCell id="SUZSEkjQNCOUX_3ySbaj-69" value="" style="edgeStyle=orthogonalEdgeStyle;rounded=0;orthogonalLoop=1;jettySize=auto;html=1;" parent="1" target="SUZSEkjQNCOUX_3ySbaj-9" edge="1">
          <mxGeometry relative="1" as="geometry">
            <mxPoint x="-721.75" y="279.5" as="sourcePoint" />
            <mxPoint x="-648.2849999999999" y="279.99999999999994" as="targetPoint" />
            <Array as="points">
              <mxPoint x="-722" y="281" />
            </Array>
          </mxGeometry>
        </mxCell>
        <mxCell id="SUZSEkjQNCOUX_3ySbaj-74" value="" style="edgeStyle=orthogonalEdgeStyle;rounded=0;orthogonalLoop=1;jettySize=auto;html=1;" parent="1" edge="1">
          <mxGeometry relative="1" as="geometry">
            <mxPoint x="-484.53" y="279.5" as="sourcePoint" />
            <mxPoint x="-324.53" y="280.5" as="targetPoint" />
            <Array as="points">
              <mxPoint x="-484.78" y="281" />
            </Array>
          </mxGeometry>
        </mxCell>
        <mxCell id="SUZSEkjQNCOUX_3ySbaj-76" value="" style="edgeStyle=orthogonalEdgeStyle;rounded=0;orthogonalLoop=1;jettySize=auto;html=1;" parent="1" edge="1">
          <mxGeometry relative="1" as="geometry">
            <mxPoint x="-219" y="281" as="sourcePoint" />
            <mxPoint x="-27.5" y="280.5" as="targetPoint" />
            <Array as="points">
              <mxPoint x="-219" y="280" />
              <mxPoint x="-219" y="281" />
            </Array>
          </mxGeometry>
        </mxCell>
        <mxCell id="SUZSEkjQNCOUX_3ySbaj-77" value="" style="image;aspect=fixed;html=1;points=[];align=center;fontSize=12;image=img/lib/azure2/general/Storage_Container.svg;" parent="1" vertex="1">
          <mxGeometry x="-143.75" y="463.62000000000006" width="72.5" height="58.91" as="geometry" />
        </mxCell>
        <mxCell id="SUZSEkjQNCOUX_3ySbaj-78" value="&lt;h1 style=&quot;color: rgb(41, 41, 41); background-color: rgb(255, 255, 255); font-family: Consolas, &amp;quot;Courier New&amp;quot;, monospace; font-size: 14px; line-height: 19px; white-space: pre;&quot;&gt;Blob &lt;br&gt;Container&lt;/h1&gt;" style="text;html=1;align=center;verticalAlign=middle;whiteSpace=wrap;rounded=0;" parent="1" vertex="1">
          <mxGeometry x="-165" y="550" width="115" height="35" as="geometry" />
        </mxCell>
        <mxCell id="SUZSEkjQNCOUX_3ySbaj-79" value="&lt;h1 style=&quot;color: rgb(41, 41, 41); background-color: rgb(255, 255, 255); font-family: Consolas, &amp;quot;Courier New&amp;quot;, monospace; font-size: 14px; line-height: 19px; white-space: pre;&quot;&gt;Auto ML&lt;br/&gt;Traine&lt;/h1&gt;" style="text;html=1;align=center;verticalAlign=middle;whiteSpace=wrap;rounded=0;" parent="1" vertex="1">
          <mxGeometry x="-297.5" y="550" width="115" height="35" as="geometry" />
        </mxCell>
        <mxCell id="SUZSEkjQNCOUX_3ySbaj-83" value="&lt;h1&gt;&lt;font style=&quot;&quot;&gt;&lt;br&gt;&lt;/font&gt;&lt;/h1&gt;" style="text;html=1;align=center;verticalAlign=middle;whiteSpace=wrap;rounded=0;" parent="1" vertex="1">
          <mxGeometry x="180" y="710" width="138.38" as="geometry" />
        </mxCell>
        <mxCell id="SUZSEkjQNCOUX_3ySbaj-88" value="&lt;h1 style=&quot;color: rgb(41, 41, 41); background-color: rgb(255, 255, 255); font-family: Consolas, &amp;quot;Courier New&amp;quot;, monospace; font-size: 14px; line-height: 19px; white-space: pre;&quot;&gt;Machine Learning&lt;br&gt;Work Space&lt;/h1&gt;" style="text;html=1;align=center;verticalAlign=middle;whiteSpace=wrap;rounded=0;" parent="1" vertex="1">
          <mxGeometry x="-50" y="550" width="170" height="35" as="geometry" />
        </mxCell>
        <mxCell id="SUZSEkjQNCOUX_3ySbaj-95" value="" style="edgeStyle=orthogonalEdgeStyle;rounded=0;orthogonalLoop=1;jettySize=auto;html=1;" parent="1" edge="1">
          <mxGeometry relative="1" as="geometry">
            <mxPoint x="-146.77" y="506.82" as="sourcePoint" />
            <mxPoint x="-201.77" y="506.82" as="targetPoint" />
            <Array as="points">
              <mxPoint x="-190.77" y="506.82" />
              <mxPoint x="-190.77" y="506.82" />
            </Array>
          </mxGeometry>
        </mxCell>
        <mxCell id="SUZSEkjQNCOUX_3ySbaj-96" value="" style="edgeStyle=orthogonalEdgeStyle;rounded=0;orthogonalLoop=1;jettySize=auto;html=1;" parent="1" edge="1">
          <mxGeometry relative="1" as="geometry">
            <mxPoint x="-280" y="506.82" as="sourcePoint" />
            <mxPoint x="-335" y="506.82" as="targetPoint" />
            <Array as="points">
              <mxPoint x="-324" y="506.82" />
              <mxPoint x="-324" y="506.82" />
            </Array>
          </mxGeometry>
        </mxCell>
        <mxCell id="SUZSEkjQNCOUX_3ySbaj-97" value="&lt;h1 style=&quot;color: rgb(41, 41, 41); background-color: rgb(255, 255, 255); font-family: Consolas, &amp;quot;Courier New&amp;quot;, monospace; font-size: 14px; line-height: 19px; white-space: pre;&quot;&gt;Resource&lt;br/&gt;Group&lt;/h1&gt;" style="text;html=1;align=center;verticalAlign=middle;whiteSpace=wrap;rounded=0;" parent="1" vertex="1">
          <mxGeometry x="-670" y="200" width="80" height="35" as="geometry" />
        </mxCell>
        <mxCell id="SUZSEkjQNCOUX_3ySbaj-98" value="" style="shape=singleArrow;direction=south;whiteSpace=wrap;html=1;" parent="1" vertex="1">
          <mxGeometry x="72.5" y="369.48" width="20" height="62.44" as="geometry" />
        </mxCell>
        <mxCell id="SUZSEkjQNCOUX_3ySbaj-100" value="Create&lt;br&gt;Data Store" style="text;html=1;align=center;verticalAlign=middle;whiteSpace=wrap;rounded=0;" parent="1" vertex="1">
          <mxGeometry x="-60" y="468.32" width="60" height="30" as="geometry" />
        </mxCell>
        <mxCell id="SUZSEkjQNCOUX_3ySbaj-101" value="" style="edgeStyle=orthogonalEdgeStyle;rounded=0;orthogonalLoop=1;jettySize=auto;html=1;" parent="1" edge="1">
          <mxGeometry relative="1" as="geometry">
            <mxPoint x="-432.5" y="506.85999999999996" as="sourcePoint" />
            <mxPoint x="-487.5" y="506.85999999999996" as="targetPoint" />
            <Array as="points">
              <mxPoint x="-476.5" y="506.85999999999996" />
              <mxPoint x="-476.5" y="506.85999999999996" />
            </Array>
          </mxGeometry>
        </mxCell>
        <mxCell id="SUZSEkjQNCOUX_3ySbaj-103" value="" style="edgeStyle=orthogonalEdgeStyle;rounded=0;orthogonalLoop=1;jettySize=auto;html=1;" parent="1" edge="1">
          <mxGeometry relative="1" as="geometry">
            <mxPoint x="-10" y="506.83000000000004" as="sourcePoint" />
            <mxPoint x="-65" y="506.83000000000004" as="targetPoint" />
            <Array as="points">
              <mxPoint x="-54" y="506.83000000000004" />
              <mxPoint x="-54" y="506.83000000000004" />
            </Array>
          </mxGeometry>
        </mxCell>
        <mxCell id="SUZSEkjQNCOUX_3ySbaj-104" value="" style="image;aspect=fixed;html=1;points=[];align=center;fontSize=12;image=img/lib/azure2/general/Dashboard2.svg;" parent="1" vertex="1">
          <mxGeometry x="-297.5" y="982.1600000000001" width="46.28" height="32.67" as="geometry" />
        </mxCell>
        <mxCell id="SUZSEkjQNCOUX_3ySbaj-108" value="" style="edgeStyle=orthogonalEdgeStyle;rounded=0;orthogonalLoop=1;jettySize=auto;html=1;" parent="1" edge="1">
          <mxGeometry relative="1" as="geometry">
            <mxPoint x="-499.53" y="773.5" as="sourcePoint" />
            <mxPoint x="-326.03" y="774.5" as="targetPoint" />
            <Array as="points">
              <mxPoint x="-499.78" y="775" />
            </Array>
          </mxGeometry>
        </mxCell>
        <mxCell id="SUZSEkjQNCOUX_3ySbaj-114" value="&lt;b&gt;Create&lt;br&gt;Power BI Report&lt;/b&gt;" style="text;html=1;align=center;verticalAlign=middle;whiteSpace=wrap;rounded=0;" parent="1" vertex="1">
          <mxGeometry x="-470" y="735.6" width="110" height="30" as="geometry" />
        </mxCell>
        <mxCell id="SUZSEkjQNCOUX_3ySbaj-116" value="" style="edgeStyle=orthogonalEdgeStyle;rounded=0;orthogonalLoop=1;jettySize=auto;html=1;" parent="1" edge="1">
          <mxGeometry relative="1" as="geometry">
            <mxPoint x="-190" y="774" as="sourcePoint" />
            <mxPoint x="-15.75" y="774" as="targetPoint" />
            <Array as="points">
              <mxPoint x="-200" y="775" />
            </Array>
          </mxGeometry>
        </mxCell>
        <mxCell id="SUZSEkjQNCOUX_3ySbaj-117" value="&lt;b&gt;Puplish&lt;br&gt;Power BI Report&lt;/b&gt;" style="text;html=1;align=center;verticalAlign=middle;whiteSpace=wrap;rounded=0;" parent="1" vertex="1">
          <mxGeometry x="-168.75" y="739" width="122.5" height="30" as="geometry" />
        </mxCell>
        <mxCell id="SUZSEkjQNCOUX_3ySbaj-118" value="" style="edgeStyle=orthogonalEdgeStyle;rounded=0;orthogonalLoop=1;jettySize=auto;html=1;" parent="1" edge="1">
          <mxGeometry relative="1" as="geometry">
            <mxPoint x="-511.75" y="993.5" as="sourcePoint" />
            <mxPoint x="-338.25" y="994.5" as="targetPoint" />
            <Array as="points">
              <mxPoint x="-512" y="995" />
            </Array>
          </mxGeometry>
        </mxCell>
        <mxCell id="SUZSEkjQNCOUX_3ySbaj-119" value="&lt;div style=&quot;color: rgb(41, 41, 41); background-color: rgb(255, 255, 255); font-family: Consolas, &amp;quot;Courier New&amp;quot;, monospace; font-size: 14px; line-height: 19px; white-space: pre;&quot;&gt;&lt;b&gt;App Fabric&lt;/b&gt;&lt;/div&gt;" style="text;html=1;align=center;verticalAlign=middle;whiteSpace=wrap;rounded=0;" parent="1" vertex="1">
          <mxGeometry x="-607" y="1038" width="115" height="35" as="geometry" />
        </mxCell>
        <mxCell id="SUZSEkjQNCOUX_3ySbaj-124" value="" style="edgeStyle=orthogonalEdgeStyle;rounded=0;orthogonalLoop=1;jettySize=auto;html=1;" parent="1" edge="1">
          <mxGeometry relative="1" as="geometry">
            <mxPoint x="2.38" y="993.51" as="sourcePoint" />
            <mxPoint x="-217.37" y="993.52" as="targetPoint" />
          </mxGeometry>
        </mxCell>
        <mxCell id="SUZSEkjQNCOUX_3ySbaj-128" value="" style="shape=singleArrow;direction=south;whiteSpace=wrap;html=1;" parent="1" vertex="1">
          <mxGeometry x="-570" y="613.78" width="20" height="62.44" as="geometry" />
        </mxCell>
        <mxCell id="SUZSEkjQNCOUX_3ySbaj-130" value="&lt;div style=&quot;color: rgb(41, 41, 41); background-color: rgb(255, 255, 255); font-family: Consolas, &amp;quot;Courier New&amp;quot;, monospace; font-size: 14px; line-height: 19px; white-space: pre;&quot;&gt;&lt;div style=&quot;line-height: 19px;&quot;&gt;&lt;b&gt;Visualizations for &lt;br&gt;Machine Learning and User Data &lt;/b&gt;&lt;/div&gt;&lt;/div&gt;" style="text;html=1;align=center;verticalAlign=middle;whiteSpace=wrap;rounded=0;" parent="1" vertex="1">
          <mxGeometry x="-381.51" y="1050" width="221.51" height="35" as="geometry" />
        </mxCell>
        <mxCell id="SUZSEkjQNCOUX_3ySbaj-131" value="" style="shape=singleArrow;direction=south;whiteSpace=wrap;html=1;" parent="1" vertex="1">
          <mxGeometry x="-580" y="848.78" width="20" height="62.44" as="geometry" />
        </mxCell>
        <mxCell id="SUZSEkjQNCOUX_3ySbaj-132" value="&lt;h1 style=&quot;color: rgb(41, 41, 41); background-color: rgb(255, 255, 255); font-family: Consolas, &amp;quot;Courier New&amp;quot;, monospace; font-size: 14px; line-height: 19px; white-space: pre;&quot;&gt;User&lt;/h1&gt;" style="text;html=1;align=center;verticalAlign=middle;whiteSpace=wrap;rounded=0;" parent="1" vertex="1">
          <mxGeometry x="-22.499999999999954" y="1050" width="115" height="35" as="geometry" />
        </mxCell>
        <mxCell id="SUZSEkjQNCOUX_3ySbaj-133" value="" style="image;aspect=fixed;html=1;points=[];align=center;fontSize=12;image=img/lib/azure2/analytics/Power_BI_Embedded.svg;" parent="1" vertex="1">
          <mxGeometry x="-10" y="234.99999999999997" width="51" height="68" as="geometry" />
        </mxCell>
        <mxCell id="SUZSEkjQNCOUX_3ySbaj-134" value="" style="image;aspect=fixed;html=1;points=[];align=center;fontSize=12;image=img/lib/azure2/power_platform/PowerPlatform.svg;" parent="1" vertex="1">
          <mxGeometry x="-573.66" y="964.5" width="64.32" height="68" as="geometry" />
        </mxCell>
        <mxCell id="SUZSEkjQNCOUX_3ySbaj-139" value="&lt;div style=&quot;color: rgb(41, 41, 41); background-color: rgb(255, 255, 255); font-family: Consolas, &amp;quot;Courier New&amp;quot;, monospace; font-size: 14px; line-height: 19px; white-space: pre;&quot;&gt;&lt;b&gt;Power BI&lt;br&gt;DeskTop&lt;/b&gt;&lt;/div&gt;" style="text;html=1;align=center;verticalAlign=middle;whiteSpace=wrap;rounded=0;" parent="1" vertex="1">
          <mxGeometry x="-42" y="312.49999999999994" width="115" height="35" as="geometry" />
        </mxCell>
        <mxCell id="YPgmsgtWzGODVqg9kVuv-1" value="." style="text;html=1;align=center;verticalAlign=middle;whiteSpace=wrap;rounded=0;" parent="1" vertex="1">
          <mxGeometry x="-680" y="1055" width="60" height="30" as="geometry" />
        </mxCell>
        <mxCell id="YPgmsgtWzGODVqg9kVuv-2" value="." style="text;html=1;align=center;verticalAlign=middle;whiteSpace=wrap;rounded=0;" parent="1" vertex="1">
          <mxGeometry x="120" y="1068" width="60" height="30" as="geometry" />
        </mxCell>
        <mxCell id="YPgmsgtWzGODVqg9kVuv-3" value="." style="text;html=1;align=center;verticalAlign=middle;whiteSpace=wrap;rounded=0;" parent="1" vertex="1">
          <mxGeometry x="-849.75" y="265" width="60" height="30" as="geometry" />
        </mxCell>
        <mxCell id="YPgmsgtWzGODVqg9kVuv-4" value="." style="text;html=1;align=center;verticalAlign=middle;whiteSpace=wrap;rounded=0;" parent="1" vertex="1">
          <mxGeometry x="199.99" y="247.42000000000002" width="60" height="30" as="geometry" />
        </mxCell>
        <mxCell id="YPgmsgtWzGODVqg9kVuv-5" value="." style="text;html=1;align=center;verticalAlign=middle;whiteSpace=wrap;rounded=0;" parent="1" vertex="1">
          <mxGeometry x="-278.24" y="10" width="60" height="30" as="geometry" />
        </mxCell>
        <mxCell id="YPgmsgtWzGODVqg9kVuv-7" value="&lt;div style=&quot;color: rgb(41, 41, 41); background-color: rgb(255, 255, 255); font-family: Consolas, &amp;quot;Courier New&amp;quot;, monospace; line-height: 19px; white-space-collapse: preserve;&quot;&gt;&lt;span style=&quot;color: rgb(0, 0, 128);&quot;&gt;&lt;font style=&quot;font-size: 24px;&quot;&gt;Dasboard Design in Power BI&lt;/font&gt;&lt;/span&gt;&lt;/div&gt;" style="text;strokeColor=none;fillColor=none;html=1;fontSize=24;fontStyle=1;verticalAlign=middle;align=center;" parent="1" vertex="1">
          <mxGeometry x="-429.75" y="625" width="381.5" height="40" as="geometry" />
        </mxCell>
        <mxCell id="YPgmsgtWzGODVqg9kVuv-8" value="&lt;div style=&quot;color: rgb(41, 41, 41); background-color: rgb(255, 255, 255); font-family: Consolas, &amp;quot;Courier New&amp;quot;, monospace; line-height: 19px; white-space-collapse: preserve;&quot;&gt;&lt;span style=&quot;color: rgb(0, 0, 128);&quot;&gt;&lt;font style=&quot;font-size: 24px;&quot;&gt;Visualization &lt;/font&gt;&lt;/span&gt;&lt;/div&gt;" style="text;strokeColor=none;fillColor=none;html=1;fontSize=24;fontStyle=1;verticalAlign=middle;align=center;" parent="1" vertex="1">
          <mxGeometry x="-440.75" y="860" width="381.5" height="40" as="geometry" />
        </mxCell>
        <mxCell id="YPgmsgtWzGODVqg9kVuv-10" value="&lt;div style=&quot;color: rgb(41, 41, 41); background-color: rgb(255, 255, 255); font-family: Consolas, &amp;quot;Courier New&amp;quot;, monospace; line-height: 19px; white-space-collapse: preserve;&quot;&gt;&lt;font style=&quot;font-size: 24px;&quot;&gt;&lt;span style=&quot;color: rgb(0, 0, 128);&quot;&gt;&lt;font style=&quot;&quot;&gt;Visualization Change Impact Assessment Tool &lt;/font&gt;&lt;/span&gt;&lt;span style=&quot;color: rgb(15, 74, 133);&quot;&gt; &lt;/span&gt;&lt;/font&gt;&lt;/div&gt;" style="text;strokeColor=none;fillColor=none;html=1;fontSize=24;fontStyle=1;verticalAlign=middle;align=center;" parent="1" vertex="1">
          <mxGeometry x="-615" y="50" width="750" height="40" as="geometry" />
        </mxCell>
      </root>
    </mxGraphModel>
  </diagram>
</mxfile>
